<svg xmlns="http://www.w3.org/2000/svg" viewBox="0 0 300 372">
    <path fill="#60C9F8" d="M301 2.5c-1.512 1.747-3.14 2.878-4.519 4.257C218.698 84.503 140.935 162.269 63.17 240.034c-4.82 4.82-4.818 4.815-9.535.105-17.333-17.306-34.669-34.61-52.319-52.027-.315-.862-.315-1.612.023-2.785.842-.855 1.377-1.257 1.846-1.725A660185.963 660185.963 0 00182.66 4.104c.907-.908 1.566-2.064 2.34-3.104 37.333 0 74.667-.01 112 .042 1.334.002 2.667.625 4 1.458z" />
    <path fill="#5BC7F8" d="M301 173.667c-3.95 4.119-7.968 7.837-11.84 11.7-28.876 28.805-57.722 57.638-87.1 86.607-.52.146-.929.165-1.231-.007a8508.623 8508.623 0 01-43.035-42.722c-4.687-4.688-9.215-9.536-13.815-14.31 13.702-13.838 27.345-27.735 41.207-41.41 1.255-1.239 3.921-1.454 5.934-1.459 36.314-.086 72.628-.066 109.411-.068.469.446.469.89.469 1.669z" />
    <path fill="#075A9D" d="M201.131 272.14s.409-.02.611-.047c16.228 16.132 32.25 32.292 48.28 48.444 2.928 2.95 5.885 5.87 8.569 9.125-1.755.877-3.427 1.167-4.72 2.028a10585.893 10585.893 0 00-52.41 35.142c-1.035.7-1.762 1.858-3.552 3.802 3.071.18 4.654.345 6.238.353 6.161.032 12.328-.112 18.482.104 1.478.052 2.915 1.242 4.371 1.909h-40.531c-12.672-12.371-24.873-24.743-37.079-37.111-1.746-1.77-3.514-3.517-5.274-5.805.284-.716.571-.903 1.25-1.094 14.668-4.938 28.996-9.726 43.192-14.878 5.698-2.067 5.671-3.965 1.545-8.617-3.345-3.77-6.184-7.99-9.16-12.32 6.787-7.217 13.487-14.126 20.188-21.036z" />
    <path fill="#03599C" d="M227.469 373c-1.925-.667-3.362-1.857-4.84-1.909-6.154-.216-12.32-.072-18.482-.104-1.584-.008-3.167-.173-6.238-.353 1.79-1.944 2.517-3.103 3.553-3.802a10585.893 10585.893 0 0152.41-35.142c1.292-.86 2.964-1.151 4.852-1.718 14.136 13.613 27.88 27.237 41.95 40.944.937 3.13-1.376 2.05-2.645 2.052-22.535.044-45.07.032-67.606.032h-2.954z" />
    <path fill="#31B9F6" d="M144.974 328.994c-.287.187-.574.374-1.001.78-19.147-19.11-38.154-38.44-57.213-57.823 18.534-18.574 37.573-37.653 56.915-56.874 4.904 4.632 9.432 9.48 14.119 14.168a8508.623 8508.623 0 0043.035 42.722c-6.399 7.082-13.1 13.991-20.205 21.367-12.154 12.197-23.902 23.929-35.65 35.66z" />
    <path fill="#0E5299" d="M145.367 328.99c11.355-11.727 23.103-23.459 35.17-35.348 3.382 3.862 6.22 8.082 9.566 11.853 4.126 4.652 4.153 6.55-1.545 8.617-14.196 5.152-28.524 9.94-43.191 14.878z" />
</svg>