<?xml version="1.0" encoding="UTF-8"?>
<svg width="328px" height="70px" viewBox="0 0 328 70" version="1.1" xmlns="http://www.w3.org/2000/svg" xmlns:xlink="http://www.w3.org/1999/xlink">
    <!-- Generator: Sketch 61.2 (89653) - https://sketch.com -->
    <title>logo - pub.dev</title>
    <desc>Created with Sketch.</desc>
    <g id="pub.dev" stroke="none" stroke-width="1" fill="none" fill-rule="evenodd">
        <g id="general-ui---icons-and-components" transform="translate(-760.000000, -458.000000)">
            <g id="logo---pub.dev" transform="translate(760.000000, 458.000000)">
                <path d="M13.8762,54.1795 L2.2392,42.5365 C0.8382,41.0965 0.0372,39.1765 0.0002,37.1665 C0.1042,36.0755 0.4062,35.0125 0.8912,34.0305 L11.6552,11.6415 L13.8762,54.1795 Z" id="Fill-1" fill="#01579B"></path>
                <path d="M53.7287,13.887 L42.0857,2.244 C41.0747,1.227 38.9557,0.005 37.1617,0.005 C35.7647,-0.043 34.3787,0.265 33.1347,0.902 L11.6547,11.641 L53.7287,13.887 Z" id="Fill-3" fill="#40C4FF"></path>
                <polygon id="Fill-5" fill="#40C4FF" points="27.7585 68.0613 55.9685 68.0613 55.9685 55.9673 34.9225 49.2543 15.6755 55.9673"></polygon>
                <path d="M11.655,47.9124 C11.655,51.5244 12.106,52.3914 13.894,54.1854 L15.7,55.9914 L55.992,55.9914 L36.271,33.5904 L11.655,11.6474 L11.655,47.9124 Z" id="Fill-7" fill="#29B6F6"></path>
                <path d="M47.4557,11.6414 L11.6547,11.6414 L55.9797,55.9674 L68.0687,55.9674 L68.0687,28.2084 L53.7287,13.8874 C51.7177,11.8644 49.9307,11.6414 47.4557,11.6414" id="Fill-9" fill="#01579B"></path>
                <path d="M14.3278,54.6306 C12.5218,52.8246 12.0878,51.0606 12.0878,47.9126 L12.0878,12.0926 L11.6548,11.6416 L11.6548,47.9066 C11.6548,51.0606 11.6548,51.9276 14.3458,54.6306 L15.6938,55.9736 L14.3278,54.6306 Z" id="Fill-11" fill="#FFFFFF"></path>
                <polygon id="Fill-13" fill="#263238" points="67.611 27.7634 67.611 55.5214 55.517 55.5214 55.968 55.9674 68.063 55.9674 68.063 28.2144"></polygon>
                <path d="M53.7287,13.887 C51.5077,11.666 49.6897,11.641 47.0107,11.641 L11.6547,11.641 L12.1057,12.093 L47.0227,12.093 C48.3537,12.093 51.7297,11.87 53.7347,13.899 L53.7287,13.887 Z" id="Fill-15" fill="#FFFFFF"></path>
                <path d="M124.2932,50.4783 C125.9792,49.4403 127.3192,47.9713 128.3142,46.0683 C129.3082,44.1663 129.8062,41.9603 129.8062,39.4523 C129.8062,36.9453 129.3082,34.7403 128.3142,32.8373 C127.3192,30.9353 125.9792,29.4643 124.2932,28.4273 C122.6062,27.3893 120.8122,26.8703 118.9102,26.8703 C116.9642,26.8703 115.1582,27.3893 113.4942,28.4273 C111.8292,29.4643 110.4882,30.9353 109.4732,32.8373 C108.4572,34.7403 107.9492,36.9453 107.9492,39.4523 C107.9492,41.9603 108.4572,44.1663 109.4732,46.0683 C110.4882,47.9713 111.8292,49.4403 113.4942,50.4783 C115.1582,51.5163 116.9642,52.0343 118.9102,52.0343 C120.8122,52.0343 122.6062,51.5163 124.2932,50.4783 L124.2932,50.4783 Z M102.6952,22.9143 L107.9492,22.9143 L107.9492,27.8433 L108.2082,27.8433 C109.2022,26.1573 110.7052,24.7413 112.7162,23.5953 C114.7272,22.4503 116.9852,21.8763 119.4932,21.8763 C122.4772,21.8763 125.1682,22.6333 127.5682,24.1463 C129.9682,25.6603 131.8592,27.7563 133.2432,30.4373 C134.6262,33.1193 135.3182,36.1233 135.3182,39.4523 C135.3182,42.8253 134.6262,45.8413 133.2432,48.5003 C131.8592,51.1593 129.9682,53.2453 127.5682,54.7593 C125.1682,56.2713 122.4772,57.0283 119.4932,57.0283 C116.9852,57.0283 114.7272,56.4553 112.7162,55.3103 C110.7052,54.1653 109.2022,52.7703 108.2082,51.1263 L107.9492,51.1263 L108.2082,55.6663 L108.2082,69.9993 L102.6952,69.9993 L102.6952,22.9143 Z" id="Fill-17" fill="#FFFFFF"></path>
                <path d="M143.0041,53.5266 C140.9071,51.1916 139.8581,47.9276 139.8581,43.7326 L139.8581,22.9146 L145.3711,22.9146 L145.3711,42.8896 C145.3711,46.0466 146.0851,48.3596 147.5121,49.8296 C148.9391,51.2996 150.8621,52.0346 153.2841,52.0346 C155.1431,52.0346 156.7961,51.5386 158.2461,50.5436 C159.6931,49.5486 160.8171,48.2526 161.6181,46.6516 C162.4181,45.0526 162.8181,43.3656 162.8181,41.5926 L162.8181,22.9146 L168.3311,22.9146 L168.3311,55.9906 L163.0781,55.9906 L163.0781,51.1916 L162.8181,51.1916 C161.9101,52.8356 160.4611,54.2186 158.4731,55.3426 C156.4831,56.4656 154.3641,57.0286 152.1171,57.0286 C148.1381,57.0286 145.1011,55.8606 143.0041,53.5266" id="Fill-19" fill="#FFFFFF"></path>
                <path d="M196.8024,50.4783 C198.4894,49.4403 199.8284,47.9713 200.8234,46.0683 C201.8184,44.1663 202.3154,41.9603 202.3154,39.4523 C202.3154,36.9453 201.8184,34.7403 200.8234,32.8373 C199.8284,30.9353 198.4894,29.4643 196.8024,28.4273 C195.1164,27.3893 193.3214,26.8703 191.4194,26.8703 C189.4734,26.8703 187.6674,27.3893 186.0034,28.4273 C184.3394,29.4643 182.9984,30.9353 181.9824,32.8373 C180.9664,34.7403 180.4584,36.9453 180.4584,39.4523 C180.4584,41.9603 180.9664,44.1663 181.9824,46.0683 C182.9984,47.9713 184.3394,49.4403 186.0034,50.4783 C187.6674,51.5163 189.4734,52.0343 191.4194,52.0343 C193.3214,52.0343 195.1164,51.5163 196.8024,50.4783 M185.2254,55.3103 C183.2154,54.1653 181.7124,52.7703 180.7184,51.1263 L180.4584,51.1263 L180.4584,55.9913 L175.2054,55.9913 L175.2054,9.5543 L180.7184,9.5543 L180.7184,23.2383 L180.4584,27.8433 L180.7184,27.8433 C181.7124,26.1573 183.2154,24.7413 185.2254,23.5953 C187.2364,22.4503 189.4944,21.8763 192.0034,21.8763 C194.9864,21.8763 197.6784,22.6333 200.0774,24.1463 C202.4774,25.6603 204.3684,27.7563 205.7534,30.4373 C207.1364,33.1193 207.8284,36.1233 207.8284,39.4523 C207.8284,42.8253 207.1364,45.8413 205.7534,48.5003 C204.3684,51.1593 202.4774,53.2453 200.0774,54.7593 C197.6784,56.2713 194.9864,57.0283 192.0034,57.0283 C189.4944,57.0283 187.2364,56.4553 185.2254,55.3103" id="Fill-21" fill="#FFFFFF"></path>
                <path d="M213.632,54.7913 C212.832,53.9913 212.432,53.0073 212.432,51.8403 C212.432,50.7163 212.832,49.7543 213.632,48.9543 C214.432,48.1543 215.416,47.7543 216.583,47.7543 C217.751,47.7543 218.734,48.1543 219.534,48.9543 C220.334,49.7543 220.734,50.7163 220.734,51.8403 C220.734,53.0073 220.334,53.9913 219.534,54.7913 C218.734,55.5923 217.751,55.9913 216.583,55.9913 C215.416,55.9913 214.432,55.5923 213.632,54.7913" id="Fill-23" fill="#FFFFFF"></path>
                <path d="M247.1638,50.4783 C248.8278,49.4403 250.1678,47.9713 251.1848,46.0683 C252.1998,44.1663 252.7088,41.9603 252.7088,39.4523 C252.7088,36.9453 252.1998,34.7403 251.1848,32.8373 C250.1678,30.9353 248.8278,29.4643 247.1638,28.4273 C245.4978,27.3893 243.6928,26.8703 241.7478,26.8703 C239.8448,26.8703 238.0508,27.3893 236.3648,28.4273 C234.6788,29.4643 233.3268,30.9463 232.3108,32.8703 C231.2948,34.7933 230.7878,36.9883 230.7878,39.4523 C230.7878,41.9163 231.2948,44.1123 232.3108,46.0353 C233.3268,47.9593 234.6788,49.4403 236.3648,50.4783 C238.0508,51.5163 239.8448,52.0343 241.7478,52.0343 C243.6928,52.0343 245.4978,51.5163 247.1638,50.4783 M233.0898,54.7593 C230.6898,53.2453 228.7978,51.1593 227.4148,48.5003 C226.0298,45.8413 225.3388,42.8253 225.3388,39.4523 C225.3388,36.1233 226.0298,33.1193 227.4148,30.4373 C228.7978,27.7563 230.6898,25.6603 233.0898,24.1463 C235.4898,22.6333 238.1808,21.8763 241.1638,21.8763 C243.6708,21.8763 245.9198,22.4503 247.9088,23.5953 C249.8968,24.7413 251.4118,26.1573 252.4498,27.8433 L252.7088,27.8433 L252.4498,23.2383 L252.4498,9.5543 L257.9618,9.5543 L257.9618,55.9913 L252.7088,55.9913 L252.7088,51.1263 L252.4498,51.1263 C251.4118,52.7703 249.8968,54.1653 247.9088,55.3103 C245.9198,56.4553 243.6708,57.0283 241.1638,57.0283 C238.1808,57.0283 235.4898,56.2713 233.0898,54.7593" id="Fill-25" fill="#FFFFFF"></path>
                <path d="M288.7687,35.9505 C288.6817,34.5675 288.2927,33.1835 287.6017,31.7995 C286.9097,30.4165 285.8287,29.2485 284.3587,28.2975 C282.8887,27.3465 281.0287,26.8705 278.7817,26.8705 C276.1867,26.8705 273.9817,27.7035 272.1657,29.3675 C270.3497,31.0325 269.1597,33.2265 268.5987,35.9505 L288.7687,35.9505 Z M270.7387,54.7595 C268.2307,53.2455 266.2737,51.1585 264.8697,48.5005 C263.4637,45.8415 262.7617,42.8475 262.7617,39.5175 C262.7617,36.3625 263.4197,33.4325 264.7397,30.7295 C266.0577,28.0285 267.9387,25.8765 270.3817,24.2765 C272.8247,22.6775 275.6237,21.8765 278.7817,21.8765 C282.0237,21.8765 284.8337,22.6005 287.2127,24.0495 C289.5897,25.4985 291.4167,27.4975 292.6927,30.0485 C293.9677,32.5995 294.6057,35.5185 294.6057,38.8045 C294.6057,39.3235 294.5627,39.8855 294.4767,40.4905 L268.2737,40.4905 C268.4037,42.9985 269.0087,45.1175 270.0907,46.8465 C271.1697,48.5755 272.5437,49.8735 274.2087,50.7375 C275.8727,51.6025 277.6137,52.0345 279.4297,52.0345 C283.7527,52.0345 287.0187,50.0465 289.2227,46.0685 L293.8937,48.3375 C292.5087,50.9755 290.5847,53.0835 288.1207,54.6615 C285.6557,56.2395 282.6937,57.0285 279.2347,57.0285 C276.0787,57.0285 273.2467,56.2715 270.7387,54.7595 L270.7387,54.7595 Z" id="Fill-27" fill="#FFFFFF"></path>
                <polygon id="Fill-29" fill="#FFFFFF" points="295.4484 22.9143 301.3504 22.9143 311.5974 49.5053 311.7284 49.5053 322.1044 22.9143 327.8774 22.9143 314.3864 55.9913 308.8094 55.9913"></polygon>
            </g>
        </g>
    </g>
</svg>