<svg xmlns="http://www.w3.org/2000/svg" xmlns:xlink="http://www.w3.org/1999/xlink" viewBox="0 0 1600 900" xmlns:v="https://vecta.io/nano">
    <path d="M0 0h1600v900H0z" fill="#12202f" />
    <defs>
        <path id="B" d="M638.2 714.7l10.6 10.6 10.6-10.6-10.6-10.6-10.6 10.6zm10.6 6.3l-6.3-6.3 6.3-6.3 6.3 6.3-6.3 6.3z" />
        <path id="C" d="M638.2 782.7l10.6 10.6 10.6-10.6-10.6-10.6-10.6 10.6zm10.6 6.4l-6.3-6.3 6.3-6.3 6.3 6.3-6.3 6.3z" />
        <path id="D" d="M410.1 232.7c23.3 0 42.2-19 42.2-42.2s-19-42.2-42.2-42.2-42.2 19-42.2 42.2 18.9 42.2 42.2 42.2zm0-82.5c22.2 0 40.2 18.1 40.2 40.2s-18.1 40.2-40.2 40.2-40.2-18.1-40.2-40.2 18-40.2 40.2-40.2z" />
        <path id="E" d="M413 98.5c6.1 0 11.1-5 11.1-11.1s-5-11.1-11.1-11.1-11.1 5-11.1 11.1 4.9 11.1 11.1 11.1zm0-20.3c5 0 9.1 4.1 9.1 9.1s-4.1 9.1-9.1 9.1-9.1-4.1-9.1-9.1 4-9.1 9.1-9.1z" />
        <path id="F" d="M1215.8 382.6h11.3v-11.7h-11.3v11.7zm2-9.8h7.3v7.7h-7.3v-7.7z" />
        <path id="G" d="M1198.6 370.8h-11.3v11.7h11.3v-11.7zm-2 9.8h-7.3v-7.7h7.3v7.7z" />
        <path id="H" d="M1190.1 85.4c-2.9 0-5.2 2.3-5.2 5.2s2.3 5.2 5.2 5.2 5.2-2.3 5.2-5.2c.1-2.9-2.3-5.2-5.2-5.2zm0 8.5c-1.8 0-3.2-1.5-3.2-3.2s1.5-3.2 3.2-3.2 3.2 1.5 3.2 3.2-1.4 3.2-3.2 3.2z" />
        <path id="I" d="M1151.7 178.7c0 4.3 3.5 7.8 7.8 7.8s7.8-3.5 7.8-7.8-3.5-7.8-7.8-7.8-7.8 3.5-7.8 7.8zm13.5 0c0 3.2-2.6 5.8-5.8 5.8s-5.8-2.6-5.8-5.8 2.6-5.8 5.8-5.8 5.8 2.6 5.8 5.8z" />
        <path id="J" d="M1200 778.5l1.4 1.4 14.4-14.4v9c0 23.9-19.4 43.3-43.3 43.3a43.01 43.01 0 0 1-22.1-6.1l-1 1.7c7 4.1 15 6.3 23.1 6.3 25 0 45.3-20.3 45.3-45.3v-8.7l14.4 14.4 1.4-1.4-16.9-16.9-16.7 16.7z" />
    </defs>
    <g fill="#243240">
        <path d="M759.8 366.1c-23.3 0-42.2 19-42.2 42.2s19 42.2 42.2 42.2 42.2-19 42.2-42.2-18.9-42.2-42.2-42.2zm0 82.5c-22.2 0-40.2-18.1-40.2-40.2s18.1-40.2 40.2-40.2 40.2 18.1 40.2 40.2-18 40.2-40.2 40.2zm-1-40.7l-24.5 24 1.4 1.4 25.1-24.5v-31.5h-2zM367.14 714.708l8.485-8.485 8.485 8.485-8.485 8.485z" />
        <use xlink:href="#B" />
        <use xlink:href="#B" y="22.7" />
        <use xlink:href="#B" y="45.4" />
        <use xlink:href="#C" />
        <use xlink:href="#C" y="22.7" />
        <path d="M551.7 713.2H394.8v3h156.9v90.7h75.6v-3h-72.6v-19.7h72.6v-3h-72.6v-19.6h72.6v-3h-72.6v-19.7h72.6v-3h-72.6v-19.7h72.6v-3h-74.1z" />
        <use xlink:href="#D" />
        <path d="M421.7 183.5l-1.4-1.4-14.6 14.5-5.7-5.7-1.4 1.4 7.1 7.2z" />
        <circle transform="matrix(.9871 -.1602 .1602 .9871 -9.0926 61.8367)" cx="379" cy="87.3" r="10.1" />
        <use xlink:href="#E" />
        <path d="M800.1 86.3h-360v2h360v9.2h2V77.2h-2zm-300 234.5h302V162.5h-302v158.3zm153.1-79.1L800 165.2v153l-146.8-76.5zM797 318.8H505.2l145.9-76 145.9 76zm-145.9-78.3l-145.9-76H797l-145.9 76zm-2.2 1.2l-146.8 76.5v-153l146.8 76.5zm150.4 338.7c-11.8 0-18-20.6-24-40.5-6.3-20.6-12.7-41.9-26-41.9-13.2 0-19.7 21.3-26 41.9-6 19.9-12.3 40.5-24 40.5s-18-20.6-24-40.5c-6.3-20.6-12.7-41.9-26-41.9-13.2 0-19.7 21.3-26 41.9-6 19.9-12.3 40.5-24 40.5-11.8 0-18-20.6-24-40.5-6.3-20.6-12.7-41.9-26-41.9s-19.7 21.3-26 41.9c-6 19.9-12.3 40.5-24 40.5v2c13.2 0 19.7-21.3 26-41.9 6-19.9 12.3-40.5 24-40.5s18 20.6 24 40.5c6.3 20.6 12.7 41.9 26 41.9 13.2 0 19.7-21.3 26-41.9 6-19.9 12.3-40.5 24-40.5 11.8 0 18 20.6 24 40.5 6.3 20.6 12.7 41.9 26 41.9s19.7-21.3 26-41.9c6-19.9 12.3-40.5 24-40.5s18 20.6 24 40.5c6.3 20.6 12.7 41.9 26 41.9v-2zm-201.2 74.5l9.1 9.1 9.1-9.1-9.1-9.1-9.1 9.1zm9.1 4.9l-4.8-4.8 4.8-4.8 4.8 4.8-4.8 4.8zm173.925-4.868l9.051-9.051 9.051 9.051-9.051 9.051zM626.8 653.4h139.5v3H626.8zM368.9 369.6h12v12h-12zm22.02 5.968l8.485-8.485 8.485 8.485-8.485 8.485zm32.98-6.368l-7.4 12.8h14.8zm17.8 6.4a6.7 6.7 0 0 0 13.4 0 6.7 6.7 0 0 0-13.4 0zM608.3 443c-4.2 0-7.7 3.4-7.7 7.7s3.4 7.7 7.7 7.7 7.7-3.4 7.7-7.7-3.5-7.7-7.7-7.7zm0 13.3c-3.1 0-5.7-2.5-5.7-5.7a5.7 5.7 0 1 1 11.4 0c0 3.2-2.6 5.7-5.7 5.7zm-139-79.7h138v58.2h2v-60.2h-140z" />
        <use xlink:href="#F" />
        <use xlink:href="#G" />
        <use xlink:href="#G" x="-28.5" />
        <use xlink:href="#F" x="-85.4" />
        <path d="M1137.1 397.7h-2v73.7h85.4V665h2V470.4v-1-71.7h-2v71.7H1194v-71.7h-2v71.7h-26.5v-71.7h-2v71.7h-26.4z" />
        <circle cx="1221.5" cy="683.4" r="7" />
        <path d="M443.2 442.9h-77V485h77v-42.1zm-2 40.1h-73v-38.1h73V483zm2 16.5h-77v42.1h77v-42.1zm-2 40.2h-73v-38.1h73v38.1zm2 16.5h-77v42.1h77v-42.1zm-2 40.1h-73v-38.1h73v38.1z" />
        <circle cx="404.7" cy="463.9" r="7.5" />
        <path d="M793.2 730.3h-26.1v-8.8h7.1v-16.1h-16.1v16.1h7.1v8.8h-26.1v10.8H732v16.1h16.1v-16.1H741v-8.8h24.1v8.8H758v16.1h16.1v-16.1H767v-8.8h24.1v8.8H784v16.1h16.1v-16.1H793v-10.8zm-33.1-22.9h12.1v12.1h-12.1v-12.1zm-13.9 47.8h-12.1v-12.1h12.1v12.1zm26 0h-12.1v-12.1h12.1v12.1zm26.1 0h-12.1v-12.1h12.1v12.1zm-431.1-83.7h33v2h-33zm15.5-42.9v30.5L370.6 647l-1.5 1.4 14.6 14.6 14.5-14.6-1.4-1.4-12.1 12.1v-30.5zm531.5-445.2l50.6-31.6-17.7-11.1 17.7-11.1-17.7-11.1 17.7-11.1L914.2 76l-50.6 31.6 17.7 11.1-17.7 11.1 17.7 11.1-17.7 11.1 50.6 31.4zm0-105l46.9 29.2-46.9 29.2-46.9-29.2 46.9-29.2zm-31 41.4l31 19.3 31-19.3 15.8 9.9-46.9 29.2-46.9-29.2 16-9.9zm31 41.5l31-19.3 15.8 9.9-46.8 29.1-46.9-29.2 15.8-9.9 31.1 19.4zM885.4 409l-1.4-1.5-11.3 11.3v-43.2h-2v43.2l-11.2-11.3-1.4 1.5 13.6 13.6zm21.2 12.2V378l11.3 11.3 1.4-1.5-13.7-13.6-13.7 13.6 1.4 1.5 11.3-11.3v43.2zm121-49.4h16.1l-30.8 30.9 1.4 1.4 30.9-30.8v16.1h2v-19.6h-19.6zm17.6 50.5h-50.5v-50.5h11.9v-2h-13.9v54.5h54.5v-14.5h-2zm-19.1 41.5H878.4c-11.4 0-20.6 9.3-20.6 20.6v319c0 11.4 9.3 20.6 20.6 20.6h147.7c11.4 0 20.6-9.3 20.6-20.6v-319c0-11.4-9.2-20.6-20.6-20.6zm-166.3 29.4l90.8 152.6-90.5 153h-.4V493.2zm92 154.6l89.9 151H862.5l89.3-151zm92.1 151l-91-153 91.6-155h.2v307.9h-.8zm-92.2-154.9l-91.1-153h181.5l-90.4 153zm74.4 178.1H878.4c-10.3 0-18.6-8.4-18.6-18.6v-2.5h185v2.5c-.1 10.2-8.4 18.6-18.7 18.6zm18.6-333.1h-185v-4.5c0-10.3 8.4-18.6 18.6-18.6H1026c10.3 0 18.6 8.4 18.6 18.6v4.5zm-43.8-167h94.1v-94.1h-94.1v94.1zm2-92.2h90.1v90.1h-90.1v-90.1zm-88.7-3.2L859 322.1h110.4l-55.2-95.6zm0 4l51.8 89.6H862.4l51.8-89.6zm267.5-6.4c-28.7 0-52.1 23.4-52.1 52.1s23.4 52.1 52.1 52.1 52.1-23.4 52.1-52.1-23.3-52.1-52.1-52.1zm0 102.2c-27.6 0-50.1-22.5-50.1-50.1s22.5-50.1 50.1-50.1 50.1 22.5 50.1 50.1-22.4 50.1-50.1 50.1z" />
        <use xlink:href="#H" />
        <use xlink:href="#H" y="25" />
        <use xlink:href="#H" y="50" />
        <path d="M1086.2 177.7h59.4v2h-59.4zm87.2 0h59.4v2h-59.4z" />
        <use xlink:href="#I" />
        <path d="M1158.5 164.5h2v-10.3h41.7v-25-2-23-2-25h-85.3v25 2 23 2 25h41.7v10.3zm-39.7-85.4h81.3v23h-81.3v-23zm0 25h81.3v23h-81.3v-23zm0 25h81.3v23h-81.3v-23zm11.4 655.6v-9c0-23.9 19.4-43.3 43.3-43.3a43.01 43.01 0 0 1 22.1 6.1l1-1.7c-7-4.1-15-6.3-23.1-6.3-25 0-45.3 20.3-45.3 45.3v8.7l-14.4-14.4-1.4 1.4 16.9 16.9 16.6-16.6-1.4-1.4-14.3 14.3z" />
        <use xlink:href="#J" />
        <path d="M371.7 293.8l-1.4 1.4 9.6 9.6-9.6 9.6 1.4 1.4 11-11zm18 26.8H419v2h-29.3z" />
        <use xlink:href="#F" x="-921.6" />
        <path d="M277 370.8h-11.3v11.7H277v-11.7zm-2 9.8h-7.3v-7.7h7.3v7.7z" />
        <use xlink:href="#G" x="-950.1" />
        <use xlink:href="#F" x="-1007" />
        <path d="M215.4 397.7h-2v73.7h85.4V665h2V470.4v-1-71.7h-2v71.7h-26.4v-71.7h-2v71.7h-26.5v-71.7h-2v71.7h-26.5z" />
        <circle transform="matrix(.3827 -.9239 .9239 .3827 -446.3225 698.9205)" cx="299.8" cy="683.4" r="7" />
        <path d="M106 371.8h16.1l-30.8 30.9 1.4 1.4 30.8-30.8v16.1h2v-19.6H106zm17.5 50.5H73v-50.5h12v-2H71v54.5h54.5v-14.5h-2zM79.3 321.9h94.1v-94.1H79.3v94.1zm2-92.2h90.1v90.1H81.3v-90.1zm178.8-5.6c-28.7 0-52.1 23.4-52.1 52.1s23.4 52.1 52.1 52.1 52.1-23.4 52.1-52.1-23.4-52.1-52.1-52.1zm0 102.2c-27.6 0-50.1-22.5-50.1-50.1s22.5-50.1 50.1-50.1 50.1 22.5 50.1 50.1-22.5 50.1-50.1 50.1z" />
        <use xlink:href="#H" x="-921.6" />
        <use xlink:href="#H" x="-921.6" y="25" />
        <use xlink:href="#H" x="-921.6" y="50" />
        <path d="M164.5 177.7h59.4v2h-59.4zm87.3 0h59.4v2h-59.4z" />
        <use xlink:href="#I" x="-921.6" />
        <path d="M236.9 164.5h2v-10.3h41.7v-25-2-23-2-25h-85.3v25 2 23 2 25H237v10.3zm-39.7-85.4h81.3v23h-81.3v-23zm0 25h81.3v23h-81.3v-23zm0 25h81.3v23h-81.3v-23zm11.4 655.6v-9c0-23.9 19.4-43.3 43.3-43.3a43.01 43.01 0 0 1 22.1 6.1l1-1.7c-7-4.1-15-6.3-23.1-6.3-25 0-45.3 20.3-45.3 45.3v8.7L192.2 770l-1.4 1.4 16.9 16.9 16.6-16.6-1.4-1.4-14.3 14.4z" />
        <use xlink:href="#J" x="-921.7" />
        <path d="M1288.806 714.643l8.485-8.485 8.485 8.485-8.485 8.485z" />
        <use xlink:href="#B" x="921.6" />
        <use xlink:href="#B" x="921.6" y="22.7" />
        <use xlink:href="#B" x="921.6" y="45.4" />
        <use xlink:href="#C" x="921.6" />
        <use xlink:href="#C" x="921.6" y="22.7" />
        <path d="M1473.3 713.2h-156.9v3h156.9v90.7h75.6v-3h-72.6v-19.7h72.6v-3h-72.6v-19.6h72.6v-3h-72.6v-19.7h72.6v-3h-72.6v-19.7h72.6v-3h-74.1z" />
        <use xlink:href="#D" x="921.6" />
        <path d="M1343.3 183.5l-1.4-1.4-14.6 14.5-5.7-5.7-1.4 1.4 7.1 7.2z" />
        <circle cx="1300.6" cy="87.3" r="10.1" />
        <use xlink:href="#E" x="921.6" />
        <path d="M1528.8 645.9l-9.1 9.1 9.1 9.1 9.1-9.1-9.1-9.1zm-4.9 9l4.8-4.8 4.8 4.8-4.8 4.8-4.8-4.8zm-233.4-285.3h12v12h-12zm22.018 5.987l8.485-8.485 8.485 8.485-8.485 8.485zm32.982-6.387l-7.4 12.8h14.8zm17.8 6.4a6.7 6.7 0 1 0 13.4 0 6.7 6.7 0 1 0-13.4 0zm158.9 75.1c0 4.2 3.4 7.7 7.7 7.7s7.7-3.4 7.7-7.7-3.4-7.7-7.7-7.7-7.7 3.4-7.7 7.7zm13.3 0c0 3.1-2.5 5.7-5.7 5.7a5.7 5.7 0 1 1 0-11.4c3.2 0 5.7 2.6 5.7 5.7zm-144.6-74.1h138v58.2h2v-60.2h-140zm-26.1 66.3h-77V485h77v-42.1zm-2 40.1h-73v-38.1h73V483zm2 16.5h-77v42.1h77v-42.1zm-2 40.2h-73v-38.1h73v38.1zm2 16.5h-77v42.1h77v-42.1zm-2 40.1h-73v-38.1h73v38.1z" />
        <circle cx="1326.3" cy="463.9" r="7.5" />
        <path d="M1288.8 671.5h33v2h-33zm15.5-42.9v30.5l-12.1-12.1-1.4 1.4 14.5 14.6 14.5-14.6-1.4-1.4-12.1 12.1v-30.5zm-11-334.8l-1.4 1.4 9.6 9.6-9.6 9.6 1.4 1.4 11-11zm18.1 26.8h29.3v2h-29.3zM25.5 118.6l17.7-11L0 80.6V83l39.4 24.6L0 132.2v2.3l23.6-14.7 15.8 9.9L0 154.3v2.3l23.6-14.7 15.8 9.9L0 176.4v2.3l43.2-26.9-17.7-11.1 17.7-11zM0 239.3v4l44.3 76.8H0v2h47.8zm104.5 224.5H0v2h104.5c10.3 0 18.6 8.4 18.6 18.6v4.5H0v2h120.6l-90.5 153L0 593.3v3.9l29 48.7-29 49v3.9l30.1-51 89.8 151H0v2h123.1v2.5c0 10.3-8.4 18.6-18.6 18.6H0v2h104.5c11.4 0 20.6-9.3 20.6-20.6v-319c0-11.3-9.2-20.5-20.6-20.5zm18.6 335h-.8v-.1l-91-152.9 91.6-155h.2v308zm1425.4-145.4h51.5v3h-51.5zM1600 550c-1.1-3.3-2.1-6.7-3.1-10.1-6.3-20.6-12.7-41.9-26-41.9-13.2 0-19.7 21.3-26 41.9-6 19.9-12.3 40.5-24 40.5-11.8 0-18-20.6-24-40.5-6.3-20.6-12.7-41.9-26-41.9s-19.7 21.3-26 41.9c-6 19.9-12.3 40.4-24 40.4v2c13.2 0 19.7-21.3 26-41.9 6-19.9 12.3-40.5 24-40.5s18 20.6 24 40.5c6.3 20.6 12.7 41.9 26 41.9 13.2 0 19.7-21.3 26-41.9 6-19.9 12.3-40.4 24-40.4s18 20.6 24 40.5l5 15.8V550zm0-231.2h-173.2l145.9-76L1600 257v-2.3l-25.1-13.1 25.1-13.1v-2.3l-27.3 14.2-145.9-76H1600v-2h-178.3v158.3H1600v-1.9zm-176.3-153.6l146.8 76.5-146.8 76.5v-153zm-62-78.9H1600v2h-238.3z" />
    </g>

</svg>