<svg xmlns="http://www.w3.org/2000/svg" width="512" height="512" fill-rule="evenodd" clip-rule="evenodd" stroke-linejoin="round" stroke-miterlimit="2"><g class="currentLayer"><g fill="#fff" stroke-width="0"><path d="M128.462 35.537C52.602 79.359 1.587 161.63 1.177 256.057c.434 118.435 81.608 218.207 191.707 246.477-8.362-8.943-15.52-18.954-21.727-29.592-49.774-86.94-20.045-198.548 66.454-248.577 25.518-14.67 43.557-37.773 51.197-66.29 7.386-28.076 3.66-57.273-11.01-82.792-14.483-24.823-38.027-43.117-66.103-50.502-9.653-2.632-18.932-3.872-28.28-3.976-19.391-.02-37.732 5.268-54.953 14.732z" fill-rule="nonzero"/><path d="M340.698 39.267c24.2 41.603 30.62 90.583 17.971 137.964-12.394 46.94-42.566 85.971-84.61 109.917-52.243 30.408-69.714 97.349-39.747 149.337 14.228 25.264 38.027 43.116 66.103 50.502 28.262 8.08 57.714 3.914 82.537-10.57l.441.255c76.116-44.263 127.13-126.534 127.285-220.521-.179-118.875-81.354-218.647-191.01-246.663 7.665 9.13 14.823 19.14 21.03 29.779z" fill-rule="nonzero"/></g></g></svg>